<svg width="43" height="40" viewBox="0 0 43 40" fill="none" xmlns="http://www.w3.org/2000/svg">
<rect width="42.2222" height="40" rx="5" fill="#F2F7FF"/>
<path d="M29.2499 9.5C28.6006 9.49972 27.9687 9.7102 27.4493 10.0998C26.9299 10.4894 26.5509 11.0371 26.3694 11.6605C26.1879 12.2839 26.2137 12.9494 26.4428 13.5569C26.6719 14.1645 27.092 14.6812 27.64 15.0295L25.6824 21.8811C25.622 21.8774 25.5612 21.875 25.4999 21.875C24.8546 21.8743 24.2264 22.0828 23.7096 22.4693L20.093 19.4555C20.2642 18.9474 20.2962 18.4028 20.1856 17.8783C20.075 17.3538 19.8258 16.8684 19.4641 16.4728C19.1023 16.0772 18.6411 15.7857 18.1285 15.6288C17.616 15.4718 17.0707 15.4551 16.5494 15.5803C16.0282 15.7055 15.55 15.9681 15.1646 16.3407C14.7793 16.7134 14.5008 17.1825 14.3582 17.6993C14.2156 18.2161 14.2141 18.7616 14.3538 19.2792C14.4935 19.7967 14.7694 20.2674 15.1527 20.6422L13.0296 24.8885C12.9374 24.8799 12.8442 24.875 12.7499 24.875C12.0312 24.8741 11.336 25.1309 10.7904 25.5988C10.2449 26.0667 9.88522 26.7147 9.77666 27.4251C9.6681 28.1356 9.81787 28.8614 10.1988 29.4709C10.5797 30.0803 11.1665 30.533 11.8527 30.7468C12.5388 30.9605 13.2789 30.9212 13.9386 30.6358C14.5982 30.3505 15.1337 29.8381 15.4478 29.1917C15.7619 28.5453 15.8338 27.8077 15.6505 27.1127C15.4672 26.4178 15.0409 25.8116 14.4488 25.4042L16.455 21.3922C16.9424 21.5267 17.4558 21.5355 17.9475 21.4178C18.4392 21.3001 18.893 21.0598 19.2667 20.7193L22.7682 23.6374C22.5305 24.1614 22.4484 24.7427 22.5318 25.312C22.6153 25.8814 22.8607 26.4147 23.2388 26.8484C23.6169 27.2822 24.1118 27.598 24.6645 27.7583C25.2171 27.9186 25.8042 27.9166 26.3557 27.7524C26.9073 27.5883 27.3999 27.2691 27.7751 26.8327C28.1502 26.3964 28.3919 25.8614 28.4714 25.2915C28.5509 24.7215 28.4648 24.1408 28.2234 23.6185C27.982 23.0961 27.5954 22.6542 27.1099 22.3455L29.0674 15.4939C29.1278 15.4976 29.1885 15.5 29.2499 15.5C30.0455 15.5 30.8086 15.1839 31.3712 14.6213C31.9338 14.0587 32.2499 13.2956 32.2499 12.5C32.2499 11.7044 31.9338 10.9413 31.3712 10.3787C30.8086 9.81607 30.0455 9.5 29.2499 9.5ZM12.7499 29.375C12.4532 29.375 12.1632 29.287 11.9165 29.1222C11.6699 28.9574 11.4776 28.7231 11.3641 28.449C11.2505 28.1749 11.2208 27.8733 11.2787 27.5824C11.3366 27.2914 11.4794 27.0241 11.6892 26.8143C11.899 26.6046 12.1663 26.4617 12.4573 26.4038C12.7482 26.3459 13.0498 26.3756 13.3239 26.4892C13.598 26.6027 13.8323 26.795 13.9971 27.0416C14.1619 27.2883 14.2499 27.5783 14.2499 27.875C14.2494 28.2727 14.0913 28.654 13.8101 28.9352C13.5288 29.2164 13.1476 29.3746 12.7499 29.375ZM17.2499 20C16.9532 20 16.6632 19.912 16.4165 19.7472C16.1699 19.5824 15.9776 19.3481 15.8641 19.074C15.7505 18.7999 15.7208 18.4983 15.7787 18.2074C15.8366 17.9164 15.9794 17.6491 16.1892 17.4393C16.399 17.2296 16.6663 17.0867 16.9573 17.0288C17.2482 16.9709 17.5498 17.0006 17.8239 17.1142C18.098 17.2277 18.3323 17.42 18.4971 17.6666C18.6619 17.9133 18.7499 18.2033 18.7499 18.5C18.7494 18.8977 18.5913 19.279 18.3101 19.5602C18.0288 19.8414 17.6476 19.9996 17.2499 20ZM25.4999 26.375C25.2032 26.375 24.9132 26.287 24.6665 26.1222C24.4199 25.9574 24.2276 25.7231 24.1141 25.449C24.0005 25.1749 23.9708 24.8733 24.0287 24.5824C24.0866 24.2914 24.2295 24.0241 24.4392 23.8143C24.649 23.6046 24.9163 23.4617 25.2073 23.4038C25.4982 23.3459 25.7998 23.3756 26.0739 23.4892C26.348 23.6027 26.5823 23.795 26.7471 24.0416C26.9119 24.2883 26.9999 24.5783 26.9999 24.875C26.9994 25.2727 26.8413 25.654 26.5601 25.9352C26.2788 26.2164 25.8976 26.3746 25.4999 26.375ZM29.2499 14C28.9532 14 28.6632 13.912 28.4165 13.7472C28.1699 13.5824 27.9776 13.3481 27.8641 13.074C27.7505 12.7999 27.7208 12.4983 27.7787 12.2074C27.8366 11.9164 27.9795 11.6491 28.1892 11.4393C28.399 11.2296 28.6663 11.0867 28.9573 11.0288C29.2482 10.9709 29.5498 11.0006 29.8239 11.1142C30.098 11.2277 30.3323 11.42 30.4971 11.6666C30.6619 11.9133 30.7499 12.2033 30.7499 12.5C30.7494 12.8977 30.5913 13.279 30.3101 13.5602C30.0288 13.8414 29.6476 13.9996 29.2499 14Z" fill="#0058FA"/>
</svg>
