<svg width="14" height="14" viewBox="0 0 14 14" fill="none" xmlns="http://www.w3.org/2000/svg">
<path d="M7.92861 7.00011L12.0576 2.87094C12.3141 2.61462 12.3141 2.19873 12.0576 1.94241C11.8011 1.68586 11.3856 1.68586 11.1291 1.94241L7.00011 6.07157L2.8709 1.94241C2.61437 1.68586 2.19893 1.68586 1.9424 1.94241C1.68587 2.19873 1.68587 2.61462 1.9424 2.87094L6.07161 7.00011L1.9424 11.1293C1.68587 11.3856 1.68587 11.8015 1.9424 12.0578C2.07066 12.1859 2.23876 12.25 2.40665 12.25C2.57453 12.25 2.74263 12.1859 2.8709 12.0576L7.00011 7.92843L11.1291 12.0576C11.2574 12.1859 11.4255 12.25 11.5934 12.25C11.7612 12.25 11.9293 12.1859 12.0576 12.0576C12.3141 11.8013 12.3141 11.3854 12.0576 11.1291L7.92861 7.00011Z" fill="#EB1D2B"/>
</svg>
