<svg width="43" height="40" viewBox="0 0 43 40" fill="none" xmlns="http://www.w3.org/2000/svg">
<rect width="42.2222" height="40" rx="5" fill="#F2F7FF"/>
<path d="M25.6402 32H12.9994V23.4286H11.2852V8H23.2852V9.71427H30.7137V26.9264L25.6402 32ZM26.1423 29.0735L27.7873 27.4286H26.1423V29.0735ZM21.5708 9.71427H12.9994V21.7143H21.5708V9.71427ZM28.9995 11.4286H23.2852V23.4286H14.7137V30.2857H24.428V25.7143H28.9995V11.4286Z" fill="#0058FA"/>
<path d="M19.8577 20H14.7148V18.2857H19.8577V20Z" fill="#0058FA"/>
<path d="M16.4291 16.5723H14.7148V14.858H16.4291V16.5723Z" fill="#0058FA"/>
<path d="M19.8568 16.5723H18.1426V14.858H19.8568V16.5723Z" fill="#0058FA"/>
<path d="M16.4291 13.1426H14.7148V11.4283H16.4291V13.1426Z" fill="#0058FA"/>
<path d="M19.8568 13.1426H18.1426V11.4283H19.8568V13.1426Z" fill="#0058FA"/>
</svg>
