<svg width="43" height="40" viewBox="0 0 43 40" fill="none" xmlns="http://www.w3.org/2000/svg">
<rect width="42.2222" height="40" rx="5" fill="#F2F7FF"/>
<path d="M20.7519 11C22.2717 11 23.5037 12.2321 23.5037 13.7519V28.2504C23.5037 29.7702 22.2717 31.0023 20.7519 31.0023C19.2321 31.0023 18 29.7702 18 28.2504V13.7519C18 12.2321 19.2321 11 20.7519 11ZM27.7519 16C29.2717 16 30.5037 17.2321 30.5037 18.7519V28.2504C30.5037 29.7702 29.2717 31.0023 27.7519 31.0023C26.2321 31.0023 25 29.7702 25 28.2504V18.7519C25 17.2321 26.2321 16 27.7519 16ZM13.7519 21C15.2717 21 16.5037 22.2321 16.5037 23.7519V28.2504C16.5037 29.7702 15.2717 31.0023 13.7519 31.0023C12.2321 31.0023 11 29.7702 11 28.2504V23.7519C11 22.2321 12.2321 21 13.7519 21ZM20.7519 12.5C20.0605 12.5 19.5 13.0605 19.5 13.7519V28.2504C19.5 28.9418 20.0605 29.5023 20.7519 29.5023C21.4433 29.5023 22.0037 28.9418 22.0037 28.2504V13.7519C22.0037 13.0605 21.4433 12.5 20.7519 12.5ZM27.7519 17.5C27.0605 17.5 26.5 18.0605 26.5 18.7519V28.2504C26.5 28.9418 27.0605 29.5023 27.7519 29.5023C28.4433 29.5023 29.0037 28.9418 29.0037 28.2504V18.7519C29.0037 18.0605 28.4433 17.5 27.7519 17.5ZM13.7519 22.5C13.0605 22.5 12.5 23.0605 12.5 23.7519V28.2504C12.5 28.9418 13.0605 29.5023 13.7519 29.5023C14.4433 29.5023 15.0037 28.9418 15.0037 28.2504V23.7519C15.0037 23.0605 14.4433 22.5 13.7519 22.5Z" fill="#0058FA"/>
</svg>
