<svg width="43" height="40" viewBox="0 0 43 40" fill="none" xmlns="http://www.w3.org/2000/svg">
<rect width="42.2222" height="40" rx="5" fill="#F2F7FF"/>
<path d="M12.152 13.6926C10.7351 15.1046 9.74168 16.8849 9.28413 18.8322C8.82658 20.7794 8.92315 22.8159 9.56293 24.7111C10.2027 26.6063 11.3601 28.2846 12.9043 29.5561C14.4484 30.8277 16.3176 31.6417 18.3003 31.906C20.2831 32.1703 22.3002 31.8745 24.1235 31.0519C25.9468 30.2293 27.5035 28.9128 28.6175 27.2514C29.7314 25.59 30.3581 23.65 30.4267 21.6509C30.4953 19.6518 30.003 17.6734 29.0055 15.9395L27.233 17.7121C28.0895 19.5413 28.2458 21.6211 27.6725 23.5578C27.0992 25.4946 25.8359 27.154 24.1217 28.2223C22.4075 29.2906 20.3612 29.6936 18.3699 29.355C16.3787 29.0165 14.5805 27.9599 13.3157 26.3851C12.0508 24.8104 11.407 22.8266 11.5059 20.8092C11.6048 18.7918 12.4397 16.8806 13.8526 15.4372C15.2655 13.9938 17.1584 13.1182 19.1732 12.9761C21.1881 12.8341 23.1851 13.4353 24.7866 14.6662L23.2135 16.2392C22.0246 15.4219 20.584 15.0531 19.1485 15.1987C17.713 15.3443 16.3758 15.9947 15.3751 17.0342C14.3745 18.0737 13.7753 19.4346 13.6844 20.8746C13.5934 22.3146 14.0167 23.7401 14.8786 24.8972C15.7406 26.0542 16.9854 26.8677 18.3912 27.1927C19.7969 27.5177 21.2724 27.3331 22.5548 26.6717C23.8372 26.0104 24.8431 24.9153 25.3934 23.5815C25.9438 22.2477 26.0027 20.7619 25.5598 19.3887L23.4379 21.5106C23.383 22.4062 23.0008 23.2503 22.3641 23.8825C21.8802 24.3696 21.2705 24.7127 20.6031 24.8736C19.9356 25.0346 19.2366 25.007 18.5839 24.7941C17.9311 24.5811 17.3504 24.1911 16.9063 23.6675C16.4622 23.1439 16.1722 22.5072 16.0686 21.8285C15.965 21.1498 16.0519 20.4556 16.3197 19.8234C16.5874 19.1911 17.0254 18.6457 17.5849 18.2477C18.1444 17.8498 18.8034 17.615 19.4885 17.5696C20.1736 17.5241 20.8578 17.6698 21.465 17.9904L19.7918 19.6636C19.5738 19.6551 19.3565 19.693 19.1543 19.7748C18.9521 19.8566 18.7695 19.9804 18.6187 20.1379C18.3209 20.4399 18.1546 20.8474 18.1561 21.2715C18.1576 21.6956 18.3267 22.1019 18.6266 22.4018C18.9265 22.7017 19.3328 22.8708 19.7569 22.8723C20.181 22.8738 20.5885 22.7075 20.8904 22.4097C21.0432 22.2553 21.1638 22.0721 21.2452 21.8707C21.3266 21.6693 21.3673 21.4538 21.3648 21.2366L23.0123 19.5385L24.76 17.7909L26.333 16.2178L28.0559 14.495L29.479 13.0718L30.4775 13.2431L33.001 10.7213L30.6787 10.2932L30.2788 8L27.757 10.5218L27.9283 11.5202L26.5086 12.9434C24.4447 11.275 21.8369 10.4286 19.1867 10.5669C16.5364 10.7052 14.0309 11.8185 12.152 13.6926Z" fill="#0058FB"/>
</svg>
