<svg width="43" height="40" viewBox="0 0 43 40" fill="none" xmlns="http://www.w3.org/2000/svg">
<rect width="42.2222" height="40" rx="5" fill="#F2F7FF"/>
<path d="M20.6058 10.3424C20.8315 10.1463 21.1671 10.1463 21.3928 10.3424L23.3411 12.035C23.4639 12.1416 23.6247 12.1939 23.7867 12.1798L26.3579 11.9556C26.6557 11.9296 26.9272 12.1269 26.9946 12.4182L27.5759 14.9328C27.6126 15.0912 27.7119 15.228 27.8513 15.3118L30.0632 16.6417C30.3194 16.7958 30.4231 17.115 30.3063 17.3902L29.2987 19.7662C29.2352 19.916 29.2352 20.085 29.2987 20.2348L30.3063 22.6108C30.4231 22.886 30.3194 23.2052 30.0632 23.3593L27.8513 24.6892C27.7119 24.773 27.6126 24.9098 27.5759 25.0683L26.9946 27.5828C26.9272 27.8741 26.6557 28.0714 26.3579 28.0454L23.7867 27.8213C23.6247 27.8071 23.4639 27.8594 23.3411 27.966L21.3928 29.6587C21.1671 29.8547 20.8315 29.8547 20.6058 29.6587L18.6574 27.966C18.5347 27.8594 18.3739 27.8071 18.2118 27.8213L15.6407 28.0454C15.3429 28.0714 15.0714 27.8741 15.004 27.5828L14.4227 25.0683C14.386 24.9098 14.2866 24.773 14.1473 24.6892L11.9354 23.3593C11.6792 23.2052 11.5755 22.886 11.6922 22.6108L12.6999 20.2348C12.7634 20.085 12.7634 19.916 12.6999 19.7662L11.6922 17.3902C11.5755 17.115 11.6792 16.7958 11.9354 16.6417L14.1473 15.3118C14.2866 15.228 14.386 15.0912 14.4227 14.9328L15.004 12.4182C15.0714 12.1269 15.3429 11.9296 15.6407 11.9556L18.2118 12.1798C18.3739 12.1939 18.5347 12.1416 18.6574 12.035L20.6058 10.3424Z" stroke="#0058FA" stroke-width="1.5"/>
<path d="M18 21L20 23L25 18" stroke="#0058FA" stroke-width="1.5" stroke-linecap="round" stroke-linejoin="round"/>
</svg>
