<svg width="13" height="18" viewBox="0 0 13 18" fill="none" xmlns="http://www.w3.org/2000/svg">
<path d="M9.23602 12.4922H3.76234C3.38445 12.4922 3.07812 12.7985 3.07812 13.1763C3.07812 13.5542 3.38445 13.8605 3.76234 13.8605H9.23602C9.61391 13.8605 9.92023 13.5542 9.92023 13.1763C9.92023 12.7984 9.61391 12.4922 9.23602 12.4922Z" fill="#0059FB"/>
<path d="M12.3158 1.68249H8.55263V0.96927C8.55263 0.700717 8.3955 0.457001 8.15086 0.346125C7.13255 -0.115375 5.86741 -0.115375 4.8491 0.346125C4.6045 0.457001 4.44737 0.700717 4.44737 0.96927V1.68249H0.684211C0.306321 1.68249 0 1.98881 0 2.36663V16.8316C0 17.2095 0.306321 17.5158 0.684211 17.5158H12.3158C12.6937 17.5158 13 17.2095 13 16.8317V2.36663C13 1.98881 12.6937 1.68249 12.3158 1.68249ZM5.81579 1.4539C6.25498 1.34422 6.74502 1.34422 7.18421 1.4539C7.18421 1.76747 7.18421 2.87196 7.18421 3.36384H5.81579C5.81579 3.05006 5.81579 1.94283 5.81579 1.4539ZM11.6316 16.1475H1.36842V3.05081H4.44737V4.04798C4.44737 4.42583 4.75369 4.73212 5.13158 4.73212H7.86842C8.24631 4.73212 8.55263 4.42583 8.55263 4.04798V3.05081H11.6316V16.1475Z" fill="#0059FB"/>
<path d="M3.07812 7.70172C3.07812 8.07958 3.38445 8.38586 3.76234 8.38586H9.23602C9.61391 8.38586 9.92023 8.07958 9.92023 7.70172C9.92023 7.32386 9.61391 7.01758 9.23602 7.01758H3.76234C3.38445 7.01761 3.07812 7.3239 3.07812 7.70172Z" fill="#0059FB"/>
<path d="M9.23602 9.75391H3.76234C3.38445 9.75391 3.07812 10.0602 3.07812 10.438C3.07812 10.8159 3.38445 11.1222 3.76234 11.1222H9.23602C9.61391 11.1222 9.92023 10.8159 9.92023 10.438C9.92023 10.0602 9.61391 9.75391 9.23602 9.75391Z" fill="#0059FB"/>
</svg>
