<svg width="16" height="15" viewBox="0 0 16 15" fill="none" xmlns="http://www.w3.org/2000/svg">
<path d="M13.7411 8.97655C13.5626 8.79427 13.2733 8.79427 13.0948 8.97655C12.9163 9.15883 12.9163 9.45442 13.0948 9.63673L14.0167 10.5784C14.106 10.6696 14.2229 10.7151 14.3399 10.7151C14.4568 10.7151 14.5738 10.6696 14.663 10.5784C14.8415 10.3962 14.8415 10.1006 14.663 9.91825L13.7411 8.97655Z" fill="#0059FB"/>
<path d="M13.4179 5.11166C13.5349 5.11166 13.6519 5.06607 13.7411 4.97495L14.663 4.03324C14.8415 3.85096 14.8415 3.55537 14.663 3.37306C14.4846 3.19075 14.1952 3.19075 14.0167 3.37306L13.0948 4.31477C12.9163 4.49705 12.9163 4.79264 13.0948 4.97495C13.184 5.0661 13.301 5.11166 13.4179 5.11166Z" fill="#0059FB"/>
<path d="M15.1436 6.50781H13.8398C13.5874 6.50781 13.3828 6.71682 13.3828 6.97462C13.3828 7.23243 13.5874 7.44144 13.8398 7.44144H15.1436C15.396 7.44144 15.6007 7.23243 15.6007 6.97462C15.6007 6.71682 15.396 6.50781 15.1436 6.50781Z" fill="#0059FB"/>
<path d="M12.1643 0.336877C12.02 0.254314 11.8432 0.257862 11.7022 0.346058L6.46826 3.62013H4.14474C3.64851 3.59334 3.17644 3.76998 2.81405 4.11841C2.67917 4.24806 2.56547 4.39772 2.47485 4.56079H1.32496C0.59437 4.56079 0 5.1679 0 5.91415V8.03697C0 8.78321 0.59437 9.39032 1.32496 9.39032H2.47257C2.6566 9.72636 2.9344 10.0049 3.27214 10.1893L1.67985 13.0064C1.61876 13.1144 1.60259 13.243 1.63491 13.3634C1.66727 13.4837 1.74545 13.5858 1.852 13.6469L3.86843 14.8024C3.93912 14.8429 4.01589 14.8622 4.09164 14.8622C4.24968 14.8622 4.40326 14.7783 4.48781 14.6287L6.76152 10.606L11.7074 13.6082C11.7793 13.6519 11.8601 13.6737 11.9409 13.6737C12.0188 13.6737 12.0968 13.6534 12.1669 13.6126C12.3097 13.5296 12.3979 13.3747 12.3979 13.2069V0.744157C12.3979 0.575232 12.3085 0.419472 12.1643 0.336877ZM1.32496 8.45669C1.09837 8.45669 0.91404 8.26841 0.91404 8.03697V5.91415C0.91404 5.6827 1.09837 5.49442 1.32496 5.49442H2.22846C2.2284 5.50139 2.22794 5.50833 2.22794 5.5153V8.43581C2.22794 8.44281 2.22837 8.44972 2.22846 8.45669H1.32496ZM3.14198 5.5153C3.14198 5.242 3.25078 4.98064 3.44048 4.79828C3.62103 4.62471 3.85661 4.53742 4.10416 4.55292C4.11339 4.55348 6.14012 4.55376 6.14012 4.55376V9.49638H4.14685C3.5823 9.45496 3.14198 8.99148 3.14198 8.43578V5.5153ZM3.92196 13.7625L2.70275 13.0639L4.16458 10.4777C4.17338 10.4621 4.18097 10.4461 4.18783 10.43H5.80558L3.92196 13.7625ZM11.4838 12.3865L7.05416 9.69761V4.34845L11.4838 1.57745V12.3865Z" fill="#0059FB"/>
</svg>
