<svg width="14" height="14" viewBox="0 0 14 14" fill="none" xmlns="http://www.w3.org/2000/svg">
<path d="M7.00012 1.16602C7.00007 1.16602 6.99999 1.16602 6.99993 1.16602C6.99991 1.16602 6.9999 1.16602 6.99988 1.16602C6.99985 1.16602 6.99982 1.16602 6.9998 1.16602C5.06742 1.1661 3.31808 1.94904 2.05157 3.21498C2.05113 3.21542 2.05064 3.21578 2.0502 3.21621C2.04973 3.21668 2.04938 3.21717 2.04891 3.21764C0.784424 4.48289 0.00196872 6.22988 0.000300776 8.15971C0.000300776 8.16179 0 8.16381 0 8.16589C0 8.16789 0.000273433 8.1698 0.000300776 8.17177C0.00166794 9.81786 0.57347 11.3775 1.60029 12.6206C1.71111 12.7548 1.87602 12.8325 2.05003 12.8325H11.9496C12.1236 12.8325 12.2885 12.7548 12.3994 12.6206C13.4277 11.3757 14 9.81384 14 8.16589C14 4.30005 10.866 1.16602 7.00012 1.16602ZM11.6668 11.6658H2.33282C1.69624 10.8188 1.30165 9.81576 1.1958 8.74921H2.91662C3.23878 8.74921 3.49994 8.48805 3.49994 8.16589C3.49994 7.84373 3.23878 7.58258 2.91662 7.58258H1.19583C1.31229 6.40942 1.77633 5.33863 2.48345 4.47444L2.87501 4.866C3.1028 5.09379 3.47216 5.09379 3.69995 4.866C3.92775 4.6382 3.92775 4.26885 3.69995 4.04105L3.30837 3.64947C4.17256 2.94226 5.24332 2.47816 6.41654 2.36165V4.08267C6.41654 4.40483 6.67769 4.66598 6.99985 4.66598C7.32201 4.66598 7.58316 4.40483 7.58316 4.08267V2.3616C8.75635 2.47806 9.82717 2.94215 10.6914 3.64936L10.2997 4.04105C10.0719 4.26885 10.0719 4.6382 10.2997 4.866C10.5275 5.09379 10.8969 5.09379 11.1247 4.866L11.5164 4.47428C12.2237 5.33852 12.6879 6.40939 12.8044 7.58258H11.0831C10.7609 7.58258 10.4998 7.84373 10.4998 8.16589C10.4998 8.48805 10.7609 8.74921 11.0831 8.74921H12.8044C12.6985 9.81551 12.3037 10.8186 11.6668 11.6658Z" fill="#0059FB"/>
<path d="M7.10082 9.33307L8.75043 6.0332L5.45117 7.68342L7.10082 9.33307Z" fill="#0059FB"/>
</svg>
