<svg width="16" height="17" viewBox="0 0 16 17" fill="none" xmlns="http://www.w3.org/2000/svg">
<path d="M16 9.29688C16 7.82086 14.937 6.5786 13.5065 6.23624V5.2951C13.5065 2.37538 11.0324 0 7.99134 0C4.95027 0 2.47619 2.37539 2.47619 5.29514V6.24033C1.05441 6.58846 0 7.82681 0 9.29688C0 11.0362 1.47591 12.4512 3.29004 12.4512H4.39827C4.68516 12.4512 4.91775 12.2282 4.91775 11.9531V6.64062C4.91775 6.36557 4.68516 6.14258 4.39827 6.14258H3.51515V5.29514C3.51515 2.92463 5.52315 0.996094 7.99134 0.996094C10.4595 0.996094 12.4675 2.92463 12.4675 5.29514V6.14258H11.6017C11.3148 6.14258 11.0823 6.36557 11.0823 6.64062V11.9531C11.0823 12.2282 11.3148 12.4512 11.6017 12.4512H12.4675V13.2046C12.4675 14.1348 11.6782 14.8916 10.7079 14.8916H10.0904C9.86809 14.2833 9.26358 13.8457 8.55411 13.8457H7.44589C6.53316 13.8457 5.81818 14.5458 5.81818 15.4395C5.81818 16.2999 6.54836 17 7.44589 17H8.55411C9.29475 17 9.90511 16.539 10.109 15.8877H10.7079C12.2511 15.8877 13.5065 14.6841 13.5065 13.2046V12.3575C14.937 12.0151 16 10.7729 16 9.29688ZM3.87879 11.4551H3.29004C2.0488 11.4551 1.03896 10.4869 1.03896 9.29688C1.03896 8.10684 2.0488 7.13867 3.29004 7.13867H3.87879V11.4551ZM8.55411 16.0039H7.44589C7.12125 16.0039 6.85714 15.7507 6.85714 15.4395C6.85714 15.0471 7.15332 14.8418 7.44589 14.8418H8.55411C8.87875 14.8418 9.14286 15.095 9.14286 15.4062C9.14286 15.7986 8.84668 16.0039 8.55411 16.0039ZM12.71 11.4551H12.1212V7.13867H12.71C13.9512 7.13867 14.961 8.10684 14.961 9.29688C14.961 10.4869 13.9512 11.4551 12.71 11.4551Z" fill="#0059FB"/>
</svg>
