<svg width="16" height="14" viewBox="0 0 16 14" fill="none" xmlns="http://www.w3.org/2000/svg">
<path d="M11 12.6215V11.3304C11 10.6455 10.7366 9.98867 10.2678 9.50439C9.79893 9.02011 9.16304 8.74805 8.5 8.74805H3.5C2.83696 8.74805 2.20107 9.02011 1.73223 9.50439C1.26339 9.98867 1 10.6455 1 11.3304V12.6215" stroke="#0059FB" stroke-width="1.2" stroke-linecap="round" stroke-linejoin="round"/>
<path d="M6 6.16464C7.38071 6.16464 8.5 5.0085 8.5 3.58232C8.5 2.15614 7.38071 1 6 1C4.61929 1 3.5 2.15614 3.5 3.58232C3.5 5.0085 4.61929 6.16464 6 6.16464Z" stroke="#0059FB" stroke-width="1.2" stroke-linecap="round" stroke-linejoin="round"/>
<path d="M14.75 12.6196V11.3285C14.7496 10.7563 14.5652 10.2005 14.2259 9.74829C13.8865 9.29609 13.4113 8.97312 12.875 8.83008" stroke="#0059FB" stroke-width="1.2" stroke-linecap="round" stroke-linejoin="round"/>
<path d="M10.375 1.08398C10.9128 1.22621 11.3894 1.54926 11.7298 2.0022C12.0702 2.45515 12.2549 3.01222 12.2549 3.58561C12.2549 4.159 12.0702 4.71607 11.7298 5.16902C11.3894 5.62196 10.9128 5.94501 10.375 6.08723" stroke="#0059FB" stroke-width="1.2" stroke-linecap="round" stroke-linejoin="round"/>
</svg>
