<svg width="16" height="15" viewBox="0 0 16 15" fill="none" xmlns="http://www.w3.org/2000/svg">
<path fill-rule="evenodd" clip-rule="evenodd" d="M13.1104 1.21563H2.88849C2.44666 1.21563 2.08849 1.5738 2.08849 2.01562V9.47319H7.99902V10.9044H1.2V11.5798C1.2 12.0217 1.55817 12.3798 2 12.3798H7.99902V13.5798H2C0.895431 13.5798 0 12.6844 0 11.5798V10.9044V9.70438H0.888492V9.47319V2.01562C0.888492 0.911055 1.78392 0.015625 2.88849 0.015625H13.1104C14.215 0.015625 15.1104 0.911055 15.1104 2.01562V2.92218H13.9104V2.01562C13.9104 1.5738 13.5523 1.21563 13.1104 1.21563Z" fill="#0059FB"/>
<mask id="path-2-inside-1" fill="white">
<rect x="9.77734" y="4.85938" width="6.22211" height="9.32538" rx="1"/>
</mask>
<rect x="9.77734" y="4.85938" width="6.22211" height="9.32538" rx="1" stroke="#0059FB" stroke-width="2.4" mask="url(#path-2-inside-1)"/>
<ellipse cx="12.8877" cy="11.9245" rx="0.518511" ry="0.56517" fill="#0059FB"/>
</svg>
