<svg width="16" height="12" viewBox="0 0 16 12" fill="none" xmlns="http://www.w3.org/2000/svg">
<path d="M13.6 3.29688H2.4C1.6268 3.29688 1 3.81104 1 4.4453V10.1874C1 10.8217 1.6268 11.3358 2.4 11.3358H13.6C14.3732 11.3358 15 10.8217 15 10.1874V4.4453C15 3.81104 14.3732 3.29688 13.6 3.29688Z" stroke="#0059FB" stroke-width="1.2" stroke-linecap="round" stroke-linejoin="round"/>
<path d="M10.7992 11.3358V2.14842C10.7992 1.84384 10.6517 1.55174 10.3892 1.33637C10.1266 1.12099 9.77052 1 9.39922 1H6.59922C6.22792 1 5.87182 1.12099 5.60927 1.33637C5.34672 1.55174 5.19922 1.84384 5.19922 2.14842V11.3358" stroke="#0059FB" stroke-width="1.2" stroke-linecap="round" stroke-linejoin="round"/>
</svg>
