<svg width="17" height="17" viewBox="0 0 17 17" fill="none" xmlns="http://www.w3.org/2000/svg">
<path d="M14.557 10.1976C14.8682 9.80552 15.0174 9.38519 14.9984 8.95232C14.9793 8.47553 14.7634 8.10226 14.5856 7.87327C14.792 7.36512 14.8714 6.56524 14.1823 5.94417C13.6773 5.48933 12.8199 5.28545 11.6323 5.34191C10.7971 5.37955 10.0985 5.53325 10.0699 5.53952H10.0667C9.90792 5.56775 9.73962 5.60226 9.56814 5.6399C9.55544 5.43915 9.59037 4.9404 9.96509 3.81744C10.4097 2.48118 10.3843 1.45859 9.88252 0.77478C9.35537 0.0564618 8.51385 0 8.26615 0C8.02798 0 7.80887 0.0972397 7.65326 0.276035C7.30077 0.680677 7.34206 1.42723 7.38651 1.77227C6.96734 2.88268 5.79237 5.60539 4.79842 6.36135C4.77936 6.3739 4.76348 6.38959 4.74761 6.40527C4.45545 6.70954 4.25857 7.0389 4.12519 7.32748C3.93783 7.2271 3.72507 7.17064 3.49643 7.17064H1.55932C0.828939 7.17064 0.238281 7.75721 0.238281 8.47553V13.5728C0.238281 14.2942 0.832115 14.8777 1.55932 14.8777H3.49643C3.77905 14.8777 4.04263 14.7898 4.25857 14.6393L5.00483 14.7271C5.11915 14.7428 7.15152 14.9969 9.23788 14.9561C9.61577 14.9843 9.97144 15 10.3017 15C10.8701 15 11.3655 14.9561 11.7783 14.8683C12.7501 14.6644 13.4138 14.2566 13.7504 13.6575C14.0076 13.1995 14.0076 12.7447 13.9663 12.4561C14.5983 11.8915 14.7094 11.2673 14.6872 10.8281C14.6745 10.574 14.6173 10.3576 14.557 10.1976ZM1.55932 14.0307C1.3021 14.0307 1.09569 13.8237 1.09569 13.5728V8.4724C1.09569 8.21832 1.30528 8.01443 1.55932 8.01443H3.49643C3.75365 8.01443 3.96006 8.22145 3.96006 8.4724V13.5696C3.96006 13.8237 3.75047 14.0276 3.49643 14.0276H1.55932V14.0307ZM13.744 9.83061C13.6107 9.96863 13.5852 10.1788 13.6869 10.3419C13.6869 10.345 13.8171 10.5646 13.8329 10.8657C13.8552 11.2767 13.6551 11.6405 13.2359 11.9511C13.0867 12.064 13.0263 12.2585 13.0899 12.4341C13.0899 12.4373 13.2264 12.8513 13.0041 13.2434C12.7914 13.6198 12.3182 13.8896 11.6005 14.0401C11.0257 14.1625 10.2445 14.1844 9.28551 14.1092C9.27281 14.1092 9.25693 14.1092 9.24105 14.1092C7.19915 14.1531 5.13503 13.8896 5.1128 13.8864H5.10962L4.78889 13.8488C4.80794 13.761 4.81747 13.6669 4.81747 13.5728V8.4724C4.81747 8.33751 4.79524 8.20577 4.75713 8.08344C4.81429 7.87327 4.97307 7.4059 5.34779 7.00753C6.77363 5.89084 8.16771 2.12359 8.22804 1.96048C8.25345 1.8946 8.2598 1.82246 8.2471 1.75031C8.19311 1.399 8.21216 0.96926 8.28838 0.840652C8.45668 0.843789 8.91079 0.890841 9.18389 1.26412C9.5078 1.7064 9.4951 2.49686 9.14579 3.54454C8.61229 5.14115 8.56783 5.98181 8.99018 6.35194C9.19977 6.53701 9.47922 6.54642 9.68246 6.47428C9.87617 6.43036 10.0604 6.39272 10.235 6.36449C10.2477 6.36135 10.2636 6.35822 10.2763 6.35508C11.2512 6.14492 12.9978 6.01631 13.6043 6.56211C14.1187 7.02635 13.7536 7.64115 13.7123 7.70703C13.5948 7.88268 13.6297 8.11167 13.7885 8.25282C13.7917 8.25596 14.1251 8.5665 14.141 8.98369C14.1537 9.26286 14.0203 9.54831 13.744 9.83061Z" fill="#0059FB"/>
</svg>
