<svg width="13" height="16" viewBox="0 0 13 16" fill="none" xmlns="http://www.w3.org/2000/svg">
<path d="M12.6583 3.70422L9.04887 0.320406C8.8285 0.113781 8.53553 0 8.22387 0H1.16667C0.523367 0 0 0.490656 0 1.09375V14.9062C0 15.5093 0.523367 16 1.16667 16H11.8333C12.4766 16 13 15.5093 13 14.9062V4.47762C13 4.18553 12.8787 3.91088 12.6583 3.70422ZM11.2929 3.75H9.16667C9.07477 3.75 9 3.67991 9 3.59375V1.60044L11.2929 3.75ZM11.8333 15.0625H1.16667C1.07477 15.0625 1 14.9924 1 14.9062V1.09375C1 1.00759 1.07477 0.9375 1.16667 0.9375H8V3.59375C8 4.19684 8.52337 4.6875 9.16667 4.6875H12V14.9062C12 14.9924 11.9252 15.0625 11.8333 15.0625Z" fill="#0059FB"/>
<path d="M6.99039 7.07542H10.1149C10.3857 7.07542 10.6053 6.86877 10.6053 6.61388C10.6053 6.35899 10.3857 6.15234 10.1149 6.15234H6.99039C6.71956 6.15234 6.5 6.35899 6.5 6.61388C6.5 6.86877 6.71953 7.07542 6.99039 7.07542Z" fill="#0059FB"/>
<path d="M6.99039 10.1535H10.1149C10.3857 10.1535 10.6053 9.9469 10.6053 9.69201C10.6053 9.43711 10.3857 9.23047 10.1149 9.23047H6.99039C6.71956 9.23047 6.5 9.43711 6.5 9.69201C6.5 9.9469 6.71953 10.1535 6.99039 10.1535Z" fill="#0059FB"/>
<path d="M10.1165 12.3086H6.98872C6.71882 12.3086 6.5 12.5152 6.5 12.7701C6.5 13.025 6.71882 13.2317 6.98872 13.2317H10.1165C10.3864 13.2317 10.6053 13.025 10.6053 12.7701C10.6053 12.5152 10.3864 12.3086 10.1165 12.3086Z" fill="#0059FB"/>
<path d="M4.63443 5.35631L3.50091 6.34707L3.23361 6.11343C3.04169 5.94565 2.73046 5.94565 2.5385 6.11343C2.34654 6.28122 2.34654 6.55323 2.5385 6.72102L3.15336 7.25846C3.24934 7.34235 3.37514 7.38432 3.50091 7.38432C3.62667 7.38432 3.7525 7.34238 3.84845 7.25846L5.32951 5.96389C5.52147 5.79611 5.52147 5.52409 5.32951 5.35631C5.13759 5.18852 4.82635 5.18852 4.63443 5.35631Z" fill="#0059FB"/>
<path d="M4.63443 8.74303L3.50091 9.73383L3.23361 9.5002C3.04169 9.33244 2.73046 9.33241 2.5385 9.5002C2.34654 9.66798 2.34654 9.94 2.5385 10.1078L3.15336 10.6452C3.24934 10.7291 3.37514 10.771 3.50091 10.771C3.62667 10.771 3.7525 10.7291 3.84845 10.6452L5.32951 9.3506C5.52147 9.18281 5.52147 8.91079 5.32951 8.743C5.13759 8.57524 4.82635 8.57524 4.63443 8.74303Z" fill="#0059FB"/>
<path d="M4.63443 11.8352L3.50091 12.9676L3.23361 12.7006C3.04169 12.5088 2.73046 12.5088 2.5385 12.7006C2.34654 12.8923 2.34654 13.2032 2.5385 13.3949L3.15336 14.0091C3.24934 14.105 3.37514 14.1529 3.50091 14.1529C3.62667 14.1529 3.7525 14.105 3.84845 14.0091L5.32951 12.5296C5.52147 12.3378 5.52147 12.027 5.32951 11.8352C5.13759 11.6435 4.82635 11.6435 4.63443 11.8352Z" fill="#0059FB"/>
</svg>
