<svg width="16" height="17" viewBox="0 0 16 17" fill="none" xmlns="http://www.w3.org/2000/svg">
<path d="M13.9618 0H3.39703C2.27309 0 1.35881 0.893631 1.35881 1.99219V3.2207H0V4.54883H1.35881V7.86914H0V9.19727H1.35881V12.5176H0V13.8457H1.35881V15.0078C1.35881 16.1064 2.27309 17 3.39703 17H13.9618C15.0857 17 16 16.1064 16 15.0078V1.99219C16 0.893631 15.0857 0 13.9618 0ZM14.6412 15.0078C14.6412 15.374 14.3364 15.6719 13.9618 15.6719H3.39703C3.02243 15.6719 2.71762 15.374 2.71762 15.0078V13.8457H3.02335V13.844C3.03463 13.8445 3.04591 13.8457 3.05732 13.8457C3.43259 13.8457 3.73673 13.5484 3.73673 13.1816C3.73673 12.8148 3.43259 12.5176 3.05732 12.5176C3.04591 12.5176 3.03463 12.5187 3.02335 12.5193V12.5176H2.71762V9.19727H3.02335V9.19558C3.03463 9.1961 3.04591 9.19727 3.05732 9.19727C3.43259 9.19727 3.73673 8.89999 3.73673 8.5332C3.73673 8.16641 3.43259 7.86914 3.05732 7.86914C3.04591 7.86914 3.03463 7.87031 3.02335 7.87083V7.86914H2.71762V4.54883H3.02335V4.54714C3.03463 4.54766 3.04591 4.54883 3.05732 4.54883C3.43259 4.54883 3.73673 4.25156 3.73673 3.88477C3.73673 3.51797 3.43259 3.2207 3.05732 3.2207C3.04591 3.2207 3.03463 3.22187 3.02335 3.22239V3.2207H2.71762V1.99219C2.71762 1.62605 3.02243 1.32812 3.39703 1.32812H13.9618C14.3364 1.32812 14.6412 1.62605 14.6412 1.99219V15.0078ZM10.8027 8.32542C11.1407 7.91972 11.3437 7.40261 11.3437 6.83984C11.3437 5.53999 10.2617 4.48242 8.93179 4.48242C7.60191 4.48242 6.5199 5.53999 6.5199 6.83984C6.5199 7.41441 6.73156 7.94138 7.08227 8.35085C5.76194 9.0201 4.85775 10.3687 4.85775 11.9199H6.21656C6.21656 10.4369 7.4509 9.23047 8.96815 9.23047C10.4854 9.23047 11.7197 10.4369 11.7197 11.9199H13.0786C13.0786 10.3486 12.1507 8.98547 10.8027 8.32542ZM8.93179 5.81055C9.51247 5.81055 9.98487 6.27228 9.98487 6.83984C9.98487 7.40741 9.51247 7.86914 8.93179 7.86914C8.35112 7.86914 7.87872 7.40741 7.87872 6.83984C7.87872 6.27228 8.35112 5.81055 8.93179 5.81055Z" fill="#0059FB"/>
</svg>
